<svg width="47" height="45" viewBox="0 0 47 45" fill="none" xmlns="http://www.w3.org/2000/svg">
<path d="M42 16.3333V14L28 0H4.66667C2.07667 0 0 2.07667 0 4.66667V37.3333C0 38.571 0.491665 39.758 1.36683 40.6332C2.242 41.5083 3.42899 42 4.66667 42H18.6667V37.6367L38.2433 18.06C39.27 17.0333 40.5767 16.4733 42 16.3333ZM25.6667 3.5L38.5 16.3333H25.6667V3.5ZM46.3167 26.11L44.03 28.3967L39.27 23.6367L41.5567 21.35C42 20.8833 42.77 20.8833 43.2367 21.35L46.3167 24.43C46.7833 24.8967 46.7833 25.6667 46.3167 26.11ZM37.6367 25.27L42.3967 30.03L28.0933 44.3333H23.3333V39.5733L37.6367 25.27Z" fill="#CF24E6"/>
</svg>
