<svg width="14" height="14" viewBox="0 0 14 14" fill="none" xmlns="http://www.w3.org/2000/svg">
<g clip-path="url(#clip0_224_2031)">
<path d="M2.14902 0.136559C1.88925 -0.0657846 1.52011 -0.0411752 1.28495 0.191247L0.191205 1.285C-0.0412173 1.51742 -0.0658267 1.88656 0.133783 2.14906L2.32128 4.99281C2.44433 5.15414 2.63847 5.24984 2.84081 5.24984H4.32011L7.30058 8.23031C6.89863 9.02328 7.02714 10.0186 7.6916 10.6803L10.7541 13.7428C11.0959 14.0846 11.651 14.0846 11.9928 13.7428L13.7428 11.9928C14.0846 11.651 14.0846 11.0959 13.7428 10.7541L10.6803 7.69164C10.0185 7.02992 9.02324 6.89867 8.23027 7.30062L5.2498 4.32015V2.84359C5.2498 2.63851 5.1541 2.44711 4.99277 2.32406L2.14902 0.136559ZM0.543939 10.8307C0.196673 11.178 -0.000201698 11.651 -0.000201698 12.1432C-0.000201698 13.1686 0.831048 13.9998 1.85644 13.9998C2.34863 13.9998 2.82167 13.803 3.16894 13.4557L6.39003 10.2346C6.17675 9.66312 6.14394 9.04242 6.2916 8.45453L4.60449 6.76742L0.543939 10.8307ZM13.9998 3.93734C13.9998 3.65023 13.9697 3.37132 13.9123 3.10336C13.8467 2.79711 13.4721 2.71781 13.2506 2.93929L11.5033 4.68656C11.4213 4.76859 11.3092 4.81507 11.1943 4.81507H9.6248C9.38417 4.81507 9.1873 4.6182 9.1873 4.37757V2.80531C9.1873 2.69047 9.23378 2.57836 9.31581 2.49633L11.0631 0.749059C11.2846 0.527575 11.2053 0.152965 10.899 0.0873404C10.6283 0.0299185 10.3494 -0.000159578 10.0623 -0.000159578C7.88847 -0.000159578 6.1248 1.76351 6.1248 3.93734V3.95922L8.45722 6.29164C9.4416 6.04281 10.5299 6.30531 11.301 7.0764L11.7303 7.5057C13.0701 6.87679 13.9998 5.51507 13.9998 3.93734ZM1.53105 11.8123C1.53105 11.6383 1.60019 11.4714 1.72326 11.3483C1.84633 11.2252 2.01325 11.1561 2.1873 11.1561C2.36135 11.1561 2.52827 11.2252 2.65134 11.3483C2.77441 11.4714 2.84355 11.6383 2.84355 11.8123C2.84355 11.9864 2.77441 12.1533 2.65134 12.2764C2.52827 12.3994 2.36135 12.4686 2.1873 12.4686C2.01325 12.4686 1.84633 12.3994 1.72326 12.2764C1.60019 12.1533 1.53105 11.9864 1.53105 11.8123Z" fill="#6B7280"/>
</g>
<defs>
<clipPath id="clip0_224_2031">
<path d="M0 0H14V14H0V0Z" fill="white"/>
</clipPath>
</defs>
</svg>
