<svg width="20" height="20" viewBox="0 0 20 20" fill="none" xmlns="http://www.w3.org/2000/svg">
<path d="M20 20H0V0H20V20Z" stroke="#E5E7EB"/>
<path d="M4.72656 1.25C3.57812 1.25 2.57812 2.03125 2.30078 3.14453L0.0742188 12.0469C0.0234375 12.2461 0 12.4492 0 12.6523V16.25C0 17.6289 1.12109 18.75 2.5 18.75H17.5C18.8789 18.75 20 17.6289 20 16.25V12.6523C20 12.4492 19.9766 12.2461 19.9258 12.0469L17.6992 3.14453C17.4219 2.03125 16.4219 1.25 15.2734 1.25H4.72656ZM4.72656 3.75H15.2734L17.1484 11.25H15.1484C14.6758 11.25 14.2422 11.5156 14.0312 11.9414L13.4727 13.0586C13.2617 13.4805 12.8281 13.75 12.3555 13.75H7.64844C7.17578 13.75 6.74219 13.4844 6.53125 13.0586L5.97266 11.9414C5.76172 11.5195 5.32812 11.25 4.85547 11.25H2.85156L4.72656 3.75Z" fill="#4B5563"/>
</svg>
