<svg width="18" height="20" viewBox="0 0 18 20" fill="none" xmlns="http://www.w3.org/2000/svg">
<path d="M8.74913 0C8.05772 0 7.49913 0.558594 7.49913 1.25V1.94922C4.6671 2.39844 2.49913 4.85156 2.49913 7.8125V9.11719C2.49913 10.8906 1.89366 12.6133 0.788189 13.9961L0.206158 14.7266C-0.0204047 15.0078 -0.0633735 15.3945 0.0928765 15.7187C0.249127 16.043 0.577252 16.25 0.936626 16.25H16.5616C16.921 16.25 17.2491 16.043 17.4054 15.7187C17.5616 15.3945 17.5187 15.0078 17.2921 14.7266L16.7101 14C15.6046 12.6133 14.9991 10.8906 14.9991 9.11719V7.8125C14.9991 4.85156 12.8312 2.39844 9.99913 1.94922V1.25C9.99913 0.558594 9.44053 0 8.74913 0ZM8.74913 3.75H9.06163C11.3038 3.75 13.1241 5.57031 13.1241 7.8125V9.11719C13.1241 10.9883 13.6671 12.8125 14.6749 14.375H2.82335C3.83116 12.8125 4.37413 10.9883 4.37413 9.11719V7.8125C4.37413 5.57031 6.19444 3.75 8.43663 3.75H8.74913ZM11.2491 17.5H8.74913H6.24913C6.24913 18.1641 6.51085 18.8008 6.9796 19.2695C7.44835 19.7383 8.08506 20 8.74913 20C9.41319 20 10.0499 19.7383 10.5187 19.2695C10.9874 18.8008 11.2491 18.1641 11.2491 17.5Z" fill="#4B5563"/>
</svg>
